<?xml version="1.0" encoding="UTF-8"?><!DOCTYPE svg PUBLIC "-//W3C//DTD SVG 1.1//EN" "http://www.w3.org/Graphics/SVG/1.1/DTD/svg11.dtd"><svg xmlns="http://www.w3.org/2000/svg"><symbol id="facebook" viewBox="0 0 96.124 96.123"><path d="M72.089.02L59.624 0C45.62 0 36.57 9.285 36.57 23.656v10.907H24.037a1.96 1.96 0 0 0-1.96 1.961v15.803a1.96 1.96 0 0 0 1.96 1.96H36.57v39.876a1.96 1.96 0 0 0 1.96 1.96h16.352a1.96 1.96 0 0 0 1.96-1.96V54.287h14.654a1.96 1.96 0 0 0 1.96-1.96l.006-15.803a1.963 1.963 0 0 0-1.961-1.961H56.842v-9.246c0-4.444 1.059-6.7 6.848-6.7l8.397-.003a1.96 1.96 0 0 0 1.959-1.96V1.98A1.96 1.96 0 0 0 72.089.02z"/></symbol><symbol id="instagram" viewBox="0 0 97.395 97.395"><path d="M12.501 0h72.393c6.875 0 12.5 5.09 12.5 12.5v72.395c0 7.41-5.625 12.5-12.5 12.5H12.501C5.624 97.395 0 92.305 0 84.895V12.5C0 5.09 5.624 0 12.501 0zm58.447 10.821a4.395 4.395 0 0 0-4.383 4.385v10.495a4.396 4.396 0 0 0 4.383 4.385h11.008a4.398 4.398 0 0 0 4.385-4.385V15.206a4.397 4.397 0 0 0-4.385-4.385H70.948zm15.439 30.367h-8.572a28.486 28.486 0 0 1 1.25 8.355c0 16.2-13.556 29.332-30.275 29.332-16.718 0-30.272-13.132-30.272-29.332 0-2.904.438-5.708 1.25-8.355h-8.945v41.141a3.884 3.884 0 0 0 3.872 3.872h67.822a3.883 3.883 0 0 0 3.872-3.872V41.188h-.002zM48.789 29.533c-10.802 0-19.56 8.485-19.56 18.953s8.758 18.953 19.56 18.953c10.803 0 19.562-8.485 19.562-18.953s-8.758-18.953-19.562-18.953z"/></symbol><symbol id="pinterest" viewBox="0 0 486.392 486.392"><path d="M430.149 135.248C416.865 39.125 321.076-9.818 218.873 1.642 138.071 10.701 57.512 76.03 54.168 169.447c-2.037 57.029 14.136 99.801 68.399 111.84 23.499-41.586-7.569-50.676-12.433-80.802C90.222 77.367 252.16-6.718 336.975 79.313c58.732 59.583 20.033 242.77-74.57 223.71-90.621-18.179 44.383-164.005-27.937-192.611-58.793-23.286-90.013 71.135-62.137 118.072-16.355 80.711-51.557 156.709-37.3 257.909 46.207-33.561 61.802-97.734 74.57-164.704 23.225 14.136 35.659 28.758 65.268 31.038 109.195 8.48 170.267-109.014 155.28-217.479z" fill="#010002"/></symbol><symbol id="twitter" viewBox="0 0 612 612"><path d="M612 116.258a250.714 250.714 0 0 1-72.088 19.772c25.929-15.527 45.777-40.155 55.184-69.411-24.322 14.379-51.169 24.82-79.775 30.48-22.907-24.437-55.49-39.658-91.63-39.658-69.334 0-125.551 56.217-125.551 125.513 0 9.828 1.109 19.427 3.251 28.606-104.326-5.24-196.835-55.223-258.75-131.174-10.823 18.51-16.98 40.078-16.98 63.101 0 43.559 22.181 81.993 55.835 104.479a125.556 125.556 0 0 1-56.867-15.756v1.568c0 60.806 43.291 111.554 100.693 123.104-10.517 2.83-21.607 4.398-33.08 4.398-8.107 0-15.947-.803-23.634-2.333 15.985 49.907 62.336 86.199 117.253 87.194-42.947 33.654-97.099 53.655-155.916 53.655-10.134 0-20.116-.612-29.944-1.721 55.567 35.681 121.536 56.485 192.438 56.485 230.948 0 357.188-191.291 357.188-357.188l-.421-16.253c24.666-17.593 46.005-39.697 62.794-64.861z" fill="#010002"/></symbol><symbol id="youtube" viewBox="0 0 511.626 511.627"><path d="M511.339 212.987c-.186-10.277-1-23.271-2.423-38.97-1.431-15.708-3.478-29.746-6.14-42.115-3.046-13.893-9.661-25.6-19.842-35.117-10.181-9.519-22.031-15.037-35.549-16.562-42.258-4.755-106.115-7.135-191.573-7.135-85.459 0-149.317 2.38-191.572 7.135-13.516 1.524-25.319 7.043-35.404 16.562-10.089 9.514-16.656 21.221-19.702 35.117-2.852 12.373-4.996 26.41-6.423 42.115-1.425 15.699-2.235 28.688-2.424 38.97C.094 223.265 0 237.539 0 255.813c0 18.272.094 32.55.288 42.826.189 10.284.999 23.271 2.424 38.969 1.427 15.707 3.474 29.745 6.139 42.116 3.046 13.897 9.659 25.602 19.842 35.115 10.185 9.517 22.036 15.036 35.548 16.56 42.255 4.76 106.109 7.139 191.572 7.139 85.466 0 149.315-2.379 191.573-7.139 13.518-1.523 25.316-7.043 35.405-16.56 10.089-9.514 16.652-21.225 19.698-35.115 2.854-12.371 4.996-26.409 6.427-42.116 1.423-15.697 2.231-28.691 2.423-38.969.191-10.276.287-24.554.287-42.826 0-18.274-.095-32.548-.287-42.826zm-154.456 58.244L210.706 362.59c-2.666 1.903-5.905 2.854-9.71 2.854-2.853 0-5.803-.764-8.848-2.286-6.28-3.422-9.419-8.754-9.419-15.985V164.454c0-7.229 3.14-12.561 9.419-15.986 6.473-3.431 12.657-3.239 18.558.571l146.178 91.36c5.708 3.23 8.562 8.372 8.562 15.415 0 7.04-2.855 12.184-8.563 15.417z"/></symbol></svg>